<svg id="Layer_1" data-name="Layer 1" xmlns="http://www.w3.org/2000/svg" viewBox="0 0 187 187.77"><title>mvc-logo</title><path d="M360,335.79a67.88,67.88,0,1,1,67.87-67.88A67.95,67.95,0,0,1,360,335.79Zm0-129.15a61.28,61.28,0,1,0,61.27,61.27A61.35,61.35,0,0,0,360,206.64Z" transform="translate(-266.53 -173.52)" style="fill:#0c5f82"/><path d="M293.35,236l-11.75-5,10.84,7.16-.59,1.38L279.2,236.6l11.75,5-.61,1.42L271.43,235l.6-1.4,16.26,3.65-13.84-9.3.59-1.37L294,234.64Z" transform="translate(-266.53 -173.52)" style="fill:#0c5f82"/><path d="M303.1,220.79l-4.66-2.23-2.78,3.67,3.43,3.88-.94,1.23-13.93-15.69.92-1.21L304,219.56ZM288,213.53l6.63,7.53,2.4-3.18Z" transform="translate(-266.53 -173.52)" style="fill:#0c5f82"/><path d="M315.5,209l-.94-.33a3.8,3.8,0,0,1-1.38,2.58,4,4,0,0,1-5.56-.51L299.2,200.5a3.95,3.95,0,0,1,6.08-5l1.87,2.26-1.19,1-1.86-2.26a2.41,2.41,0,1,0-3.71,3.07l8.42,10.18a2.4,2.4,0,1,0,3.71-3.06l-3.33-4-1.94,1.6-1-1.17,3.13-2.59,6.64,8Z" transform="translate(-266.53 -173.52)" style="fill:#0c5f82"/><path d="M324,203.47l-9.86-18.06,1.36-.74,9.86,18.06Z" transform="translate(-266.53 -173.52)" style="fill:#0c5f82"/><path d="M337.73,197.8a4,4,0,0,1-5-2.55l-4-12.6a4,4,0,0,1,7.53-2.39l.89,2.79-1.47.47-.89-2.79a2.41,2.41,0,1,0-4.59,1.45l4,12.6a2.4,2.4,0,1,0,4.58-1.45l-.89-2.8,1.47-.46.89,2.79A4,4,0,0,1,337.73,197.8Z" transform="translate(-266.53 -173.52)" style="fill:#0c5f82"/><path d="M367.14,194.45l-1.48-.13L364,173.52l1.51.13,1.36,15.81,4-15.35,1.54.13Z" transform="translate(-266.53 -173.52)" style="fill:#0c5f82"/><path d="M384.93,198.35l.51-5.15-4.4-1.36-2.47,4.54-1.48-.45,10-18.46,1.45.45-2.12,20.88Zm1.67-16.69-4.81,8.8,3.81,1.17Z" transform="translate(-266.53 -173.52)" style="fill:#0c5f82"/><path d="M394.12,202.38l10.24-17.85,1.34.77-9.49,16.53,4.4,2.52-.76,1.32Z" transform="translate(-266.53 -173.52)" style="fill:#0c5f82"/><path d="M406.83,210.78l13.67-15.37,1.16,1L409,210.68l3.79,3.36-1,1.14Z" transform="translate(-266.53 -173.52)" style="fill:#0c5f82"/><path d="M417.56,221.54l16.68-12,4.63,6.4-1.24.89-3.72-5.15-6,4.32,3.72,5.15-1.23.89-3.72-5.15-7,5.06,3.72,5.15-1.22.89Z" transform="translate(-266.53 -173.52)" style="fill:#0c5f82"/><path d="M436.65,236.51,428.36,240l-.59-1.4,8.29-3.49,9.07-8.28.62,1.47-7.07,6.52,9.61-.5.62,1.49Z" transform="translate(-266.53 -173.52)" style="fill:#0c5f82"/><path d="M290.82,332.35a4,4,0,0,1,.2-5.58l9.7-9a3.95,3.95,0,0,1,5.36,5.79l-2.15,2-1.05-1.13,2.16-2a2.41,2.41,0,1,0-3.27-3.53l-9.7,9a2.4,2.4,0,1,0,3.26,3.53l2.16-2,1,1.13-2.15,2A4,4,0,0,1,290.82,332.35Z" transform="translate(-266.53 -173.52)" style="fill:#0c5f82"/><path d="M315.93,351.64a4,4,0,0,1-1.66-5.33l6.18-11.69a3.95,3.95,0,0,1,7,3.69L321.25,350A4,4,0,0,1,315.93,351.64Zm10.13-14.05a2.4,2.4,0,1,0-4.25-2.24L315.63,347a2.41,2.41,0,1,0,4.26,2.25Z" transform="translate(-266.53 -173.52)" style="fill:#0c5f82"/><path d="M346.1,361.24l-3.91-.57,3-20.36,3.92.58a3.94,3.94,0,0,1,3.32,4.46l-1.85,12.57A3.94,3.94,0,0,1,346.1,361.24Zm4.79-16.11a2.42,2.42,0,0,0-2-2.74l-2.39-.35-2.56,17.35,2.39.35a2.41,2.41,0,0,0,2.72-2Z" transform="translate(-266.53 -173.52)" style="fill:#0c5f82"/><path d="M373.77,361.3l-3.89-20.21,7.76-1.49.29,1.49-6.24,1.2,1.39,7.25,6.24-1.2.29,1.49-6.24,1.2,1.63,8.48,6.24-1.2.29,1.49Z" transform="translate(-266.53 -173.52)" style="fill:#0c5f82"/><path d="M409.31,348.18l-6.41-6.56-.15.09-2.08,1.23,4.5,7.67-1.33.78-10.41-17.74,3.41-2a4,4,0,0,1,5.39,1.41l1.92,3.28a3.9,3.9,0,0,1-.16,4.24l6.68,6.82Zm-8.41-14.35a2.44,2.44,0,0,0-3.29-.88l-2.08,1.23,4.37,7.45,2.08-1.22a2.42,2.42,0,0,0,.84-3.3Z" transform="translate(-266.53 -173.52)" style="fill:#0c5f82"/><path d="M431.61,329.23a4,4,0,0,1-5.56.48l-1.25-1.07,1-1.17,1.26,1.06a2.41,2.41,0,1,0,3.11-3.67l-1.16-1c-3.21-2.73-7.93,1.6-11.85-1.72l-1.18-1a3.95,3.95,0,0,1,5.11-6l1.25,1.06-1,1.18-1.25-1.07A2.41,2.41,0,1,0,417,320l1.17,1c3.2,2.71,7.92-1.62,11.86,1.72l1.16,1A3.94,3.94,0,0,1,431.61,329.23Z" transform="translate(-266.53 -173.52)" style="fill:#0c5f82"/><path d="M413.66,238.68c.41.47-3.56,7-3.56,7v4.38l.11,8.1s-61.84.34-62.86.46c-1.6.17-13.89.53-21.11.13a146.61,146.61,0,0,1-18.47-2.47l-.68-10.6L304,235.81A64.58,64.58,0,1,0,414.33,233S413.26,238.21,413.66,238.68Zm-58.1,91.51c-23.36-1.45-39.41-15.3-48.47-31.33,6.67-1.38,11.74-2.39,17.81-4.61,4.83-1.77,12.11-4.51,12.19-9.9.07-4.12-4.63-7.17-7.58-8.57-3.56-1.69-10.11-2.56-10.22-5.6-.12-3.22,7.79-5.07,11.87-5.94,17.64-3.74,40.76-4,60.14-4.74-1.52,1.72-8.52,1.55-11.34,1.77-6.14.49-12.68.73-18.46,2.31-2.38.65-6.12,2.21-6.27,4-.27,3.24,7.94,5.56,12.2,6.59a135.69,135.69,0,0,0,15.83,2.64c11,1.52,20.16,5.11,25.72,11.54,1.61,1.87,4.89,6,4.94,8.57.08,3.37-6.25,10.23-8.24,12.53C395.12,321.63,379.42,331.67,355.56,330.19Z" transform="translate(-266.53 -173.52)" style="fill:#0c5f82"/><path d="M377.87,243.17V231.65h-7.13V242Q374.39,242.46,377.87,243.17Z" transform="translate(-266.53 -173.52)" style="fill:#0c5f82"/><path d="M407.39,231.65h-7.13v19.07a72.47,72.47,0,0,1,7.13,4Z" transform="translate(-266.53 -173.52)" style="fill:#0c5f82"/><path d="M368,231.65H360.9v9.68q3.62.06,7.13.39Z" transform="translate(-266.53 -173.52)" style="fill:#0c5f82"/><path d="M417.23,263.19V238a66,66,0,0,0-3.79-6.32H410.1v24.93A34.74,34.74,0,0,1,417.23,263.19Z" transform="translate(-266.53 -173.52)" style="fill:#0c5f82"/><path d="M387.71,245.7v-14h-7.13v12.1C383,244.32,385.42,245,387.71,245.7Z" transform="translate(-266.53 -173.52)" style="fill:#0c5f82"/><path d="M397.55,249.44V231.65h-7.13V246.6Q394.17,247.92,397.55,249.44Z" transform="translate(-266.53 -173.52)" style="fill:#0c5f82"/><path d="M331.38,231.65v14c2.29-.72,4.67-1.38,7.13-1.95v-12.1Z" transform="translate(-266.53 -173.52)" style="fill:#0c5f82"/><path d="M351.06,241.72c2.34-.22,4.71-.35,7.13-.39v-9.68h-7.13Z" transform="translate(-266.53 -173.52)" style="fill:#0c5f82"/><path d="M341.22,231.65v11.52q3.48-.71,7.13-1.16V231.65Z" transform="translate(-266.53 -173.52)" style="fill:#0c5f82"/><path d="M309,256.58V231.65h-2.42a65.13,65.13,0,0,0-4.71,8.15v23.39A34.74,34.74,0,0,1,309,256.58Z" transform="translate(-266.53 -173.52)" style="fill:#0c5f82"/><path d="M318.83,231.65H311.7v23.08a72.47,72.47,0,0,1,7.13-4Z" transform="translate(-266.53 -173.52)" style="fill:#0c5f82"/><path d="M321.54,231.65v17.79q3.38-1.51,7.13-2.84V231.65Z" transform="translate(-266.53 -173.52)" style="fill:#0c5f82"/><rect x="41.54" y="53.15" width="102.02" height="2.86" style="fill:#0c5f82"/><path d="M308.9,261.8a62.46,62.46,0,0,1,10.44-6.74,86.44,86.44,0,0,1,80.45,0,62.46,62.46,0,0,1,10.44,6.74h3a59.24,59.24,0,0,0-12.54-8.49,88.47,88.47,0,0,0-82.29,0,59.24,59.24,0,0,0-12.54,8.49Z" transform="translate(-266.53 -173.52)" style="fill:#0c5f82"/><path d="M375,261.64c19-.82,16.92-5.06,35.06-5.06l3.3,3.42s-4.29,7.25-5.94,6.7-19-2.86-19-2.86Z" transform="translate(-266.53 -173.52)" style="fill:#0c5f82"/><path d="M434.47,267.91c0,1.24,0,2.46-.09,3.68h19.05c.06-1.38.1-2.78.1-4.18,0-.81,0-1.61,0-2.41H434.41C434.45,266,434.47,266.94,434.47,267.91Z" transform="translate(-266.53 -173.52)" style="fill:#0c5f82"/><path d="M285.54,267.91c0-1,0-2,.07-2.91H266.56c0,.8,0,1.6,0,2.41,0,1.4,0,2.8.1,4.18h19C285.57,270.37,285.54,269.15,285.54,267.91Z" transform="translate(-266.53 -173.52)" style="fill:#0c5f82"/></svg>